<svg width="142" height="343" viewBox="0 0 142 343" fill="none" xmlns="http://www.w3.org/2000/svg">
<g clip-path="url(#clip0)">
<path d="M251.716 342.794H-102.422V344.15H251.716V342.794Z" fill="#3F3D56"/>
<path d="M71.3228 25.4197C75.8189 25.4197 79.4636 21.7919 79.4636 17.3167C79.4636 12.8416 75.8189 9.21378 71.3228 9.21378C66.8268 9.21378 63.1819 12.8416 63.1819 17.3167C63.1819 21.7919 66.8268 25.4197 71.3228 25.4197Z" fill="#2F2E41"/>
<path d="M63.6382 20.2638C62.7893 19.1446 62.2468 17.8253 62.0635 16.4349C61.8803 15.0445 62.0627 13.6306 62.5929 12.3313C63.123 11.0321 63.9828 9.89199 65.0882 9.02254C66.1936 8.15308 67.5068 7.58401 68.8993 7.37095C67.7693 7.34001 66.6452 7.54373 65.5986 7.96911C64.552 8.39449 63.606 9.03222 62.8207 9.84164C62.0355 10.6511 61.4282 11.6144 61.0377 12.6704C60.6472 13.7263 60.4819 14.8516 60.5525 15.9746C60.6231 17.0976 60.9279 18.1937 61.4476 19.193C61.9672 20.1922 62.6904 21.0728 63.5708 21.7785C64.4513 22.4842 65.4698 22.9996 66.5615 23.2919C67.6531 23.5842 68.794 23.6469 69.9114 23.476C68.6903 23.4446 67.4922 23.1395 66.406 22.5834C65.3199 22.0272 64.3738 21.2343 63.6382 20.2638Z" fill="#2F2E41"/>
<path d="M62.8892 69.7912C76.0963 69.7912 86.8029 59.1345 86.8029 45.9887C86.8029 32.843 76.0963 22.1863 62.8892 22.1863C49.682 22.1863 38.9755 32.843 38.9755 45.9887C38.9755 59.1345 49.682 69.7912 62.8892 69.7912Z" fill="#2F2E41"/>
<path d="M40.6066 37.3181C43.1946 31.7091 47.8708 27.3203 53.6483 25.078C59.4257 22.8357 65.8523 22.9153 71.5719 25.3C71.3306 25.1799 71.0908 25.0577 70.8438 24.9448C67.9896 23.639 64.9049 22.9057 61.7659 22.7868C58.6269 22.6678 55.4951 23.1656 52.5494 24.2518C49.6038 25.3379 46.9019 26.991 44.5983 29.1167C42.2947 31.2424 40.4344 33.799 39.1237 36.6404C37.813 39.4819 37.0776 42.5526 36.9595 45.677C36.8414 48.8015 37.3429 51.9185 38.4354 54.8499C39.5278 57.7814 41.1899 60.4699 43.3265 62.7619C45.4631 65.0539 48.0325 66.9044 50.8878 68.2078C51.1349 68.3207 51.3843 68.422 51.6331 68.5259C46.088 65.7628 41.8384 60.9635 39.7812 55.1408C37.7239 49.3181 38.0198 42.9277 40.6066 37.3181Z" fill="#2F2E41"/>
<path d="M92.7564 147.371L84.6583 153.416L80.6095 141.325L89.7197 138.303L92.7564 147.371Z" fill="#FFB8B8"/>
<path d="M88.201 166.01L104.397 249.634L125.654 312.1L91.2377 319.153L57.8343 194.22L56.8216 314.116L13.2961 315.123L23.4183 243.589L28.4797 162.987L88.201 166.01Z" fill="white"/>
<path d="M36.5774 312.1V328.221L35.5651 337.288C35.5651 337.288 33.5407 345.348 45.6875 343.333C57.8342 341.318 51.7609 332.251 51.7609 332.251L47.7119 324.191L45.6875 311.093L36.5774 312.1Z" fill="#2F2E41"/>
<path d="M112.637 310.954L115.557 326.81L118.195 335.548C118.195 335.548 121.646 343.113 109.334 343.31C97.021 343.508 101.352 333.499 101.352 333.499L103.875 324.844L103.494 311.598L112.637 310.954Z" fill="#2F2E41"/>
<path d="M62.8954 68.2801C71.281 68.2801 78.0789 61.5138 78.0789 53.1672C78.0789 44.8207 71.281 38.0544 62.8954 38.0544C54.5098 38.0544 47.7119 44.8207 47.7119 53.1672C47.7119 61.5138 54.5098 68.2801 62.8954 68.2801Z" fill="#FFB8B8"/>
<path d="M53.7853 62.2349C53.7853 62.2349 55.8097 78.3553 47.7119 82.3854C39.614 86.4155 62.8954 92.4606 62.8954 92.4606L77.0666 76.3403C77.0666 76.3403 69.981 67.2726 72.0055 61.2274L53.7853 62.2349Z" fill="#FFB8B8"/>
<path d="M75.0421 73.3177C75.0421 73.3177 73.0177 83.3929 60.8709 83.3929C48.7241 83.3929 51.7608 78.3553 51.7608 78.3553L35.5651 86.4154L37.5896 132.761L23.4183 167.017C23.4183 167.017 31.5162 165.002 41.6385 170.04C51.7608 175.077 70.9932 171.047 70.9932 171.047C70.9932 171.047 79.0911 170.04 84.1522 172.055C89.2134 174.07 90.2256 168.025 90.2256 168.025L84.1522 138.807L93.2623 106.566L91.2378 78.3553L75.0421 73.3177Z" fill="#FFDFF7"/>
<path d="M17.3449 174.07L14.3082 187.168C14.3082 187.168 3.17369 206.311 11.2715 207.318C19.3693 208.326 21.3938 187.168 21.3938 187.168L26.455 174.07H17.3449Z" fill="#FFB8B8"/>
<path d="M83.14 81.3779L88.1199 77.3208L91.2379 78.3553C91.2379 78.3553 96.299 77.3478 101.36 85.4079C106.421 93.4681 128.69 120.671 125.654 123.694C122.617 126.716 98.3235 145.859 98.3235 145.859C98.3235 145.859 99.3357 148.882 98.3235 149.889C97.3112 150.897 91.2379 152.912 91.2379 151.904C91.2379 150.897 84.3637 138.058 84.3637 138.058C84.3637 138.058 89.2134 131.754 90.2256 132.761C91.5104 133.852 92.8627 134.862 94.2745 135.784L102.372 127.724C102.372 127.724 101.36 123.694 104.397 124.701C107.434 125.709 105.409 118.656 105.409 118.656L87.1889 101.528L83.14 81.3779Z" fill="#FFDFF7"/>
<path d="M40.6263 86.4154L37.9015 85.0866C37.9015 85.0866 31.5162 86.4154 29.4917 90.4455C27.4673 94.4756 22.4061 135.784 22.4061 135.784L18.3572 162.987C18.3572 162.987 15.3205 162.987 15.3205 166.01C15.3205 169.032 11.2716 177.092 14.3083 177.092C17.345 177.092 29.4918 177.092 31.5162 175.077C33.5407 173.062 37.5896 165.002 36.5774 163.995C35.5652 162.987 33.5407 162.987 33.5407 162.987L39.6141 134.776L40.6263 86.4154Z" fill="#FFDFF7"/>
<path d="M48.8794 37.3653V54.192H52.7947L57.7771 48.8782L57.1097 54.192H74.4155L73.3483 48.8782L75.4833 54.192H78.2415V37.3653H48.8794Z" fill="#2F2E41"/>
<path d="M78.0896 48.8224H80.144C81.3016 48.8224 82.4118 49.2801 83.2304 50.0949C84.049 50.9096 84.5088 52.0147 84.5088 53.1669V53.6416C84.5088 54.7939 84.049 55.8989 83.2304 56.7137C82.4118 57.5284 81.3016 57.9861 80.144 57.9861H78.0896V48.8224Z" fill="#6C63FF"/>
<path d="M77.5828 47.3091H79.441C79.9338 47.3091 80.4064 47.5039 80.7549 47.8508C81.1034 48.1977 81.2991 48.6681 81.2991 49.1586V57.6498C81.2991 58.1404 81.1034 58.6108 80.7549 58.9577C80.4064 59.3045 79.9338 59.4994 79.441 59.4994H77.5828V47.3091Z" fill="#6C63FF"/>
<path d="M47.7012 57.9861H45.6467C45.0735 57.9861 44.506 57.8737 43.9764 57.6554C43.4468 57.4371 42.9656 57.117 42.5603 56.7136C42.155 56.3102 41.8335 55.8312 41.6142 55.3041C41.3948 54.777 41.2819 54.2121 41.2819 53.6416V53.1669C41.2819 52.5964 41.3948 52.0314 41.6142 51.5043C41.8335 50.9772 42.155 50.4983 42.5603 50.0948C42.9656 49.6914 43.4468 49.3714 43.9764 49.1531C44.506 48.9347 45.0735 48.8224 45.6467 48.8224H47.7012V57.9861Z" fill="#6C63FF"/>
<path d="M48.208 59.4994H46.3498C45.857 59.4994 45.3843 59.3045 45.0358 58.9577C44.6873 58.6108 44.4916 58.1404 44.4916 57.6498V49.1587C44.4916 48.9158 44.5396 48.6753 44.633 48.4509C44.7264 48.2265 44.8633 48.0226 45.0358 47.8508C45.2084 47.6791 45.4132 47.5428 45.6387 47.4499C45.8641 47.3569 46.1058 47.3091 46.3498 47.3091H48.208V59.4994Z" fill="#6C63FF"/>
<path d="M80.286 49.4602H78.924C78.924 39.8854 71.7964 32.0959 63.0354 32.0959C54.2737 32.0959 47.1461 39.8854 47.1461 49.4602H45.7841C45.7841 39.138 53.5228 30.7401 63.0354 30.7401C72.5472 30.7401 80.286 39.138 80.286 49.4602Z" fill="#6C63FF"/>
<path d="M13.1536 183.612L13.0339 183.687L10.9538 180.424C10.7957 180.176 10.5901 179.961 10.3487 179.792C10.1072 179.623 9.83475 179.503 9.54675 179.439C9.25875 179.375 8.96087 179.368 8.67015 179.419C8.37942 179.469 8.10155 179.576 7.85236 179.733L0.906173 184.12C0.656979 184.277 0.441334 184.482 0.271611 184.722C0.101887 184.963 -0.0186256 185.234 -0.0830393 185.52C-0.147453 185.807 -0.154484 186.104 -0.103781 186.393C-0.0530785 186.682 0.0544023 186.959 0.212502 187.207L11.624 205.11C11.7821 205.358 11.9878 205.573 12.2292 205.742C12.4706 205.911 12.7431 206.031 13.0311 206.095C13.3191 206.159 13.617 206.166 13.9077 206.115C14.1984 206.065 14.4763 205.958 14.7255 205.801L21.6717 201.414C22.175 201.096 22.5308 200.593 22.6609 200.014C22.791 199.435 22.6847 198.828 22.3654 198.327L14.5146 186.01L14.6343 185.935L13.1536 183.612Z" fill="#3F3D56"/>
<path d="M10.5583 180.692L21.9531 198.569C22.1915 198.943 22.2709 199.396 22.1738 199.828C22.0766 200.261 21.8109 200.637 21.435 200.874L14.4555 205.282C14.0796 205.519 13.6245 205.598 13.1901 205.502C12.7557 205.405 12.3777 205.14 12.1393 204.766L0.744488 186.889C0.506039 186.515 0.426656 186.062 0.523808 185.63C0.620961 185.198 0.886692 184.821 1.26254 184.584L2.10922 184.049C2.13248 184.177 2.18699 184.298 2.26796 184.4C2.34893 184.502 2.45391 184.583 2.5736 184.635C2.6933 184.687 2.82405 184.71 2.9544 184.7C3.08475 184.69 3.21067 184.648 3.3211 184.579L7.30053 182.066C7.41085 181.996 7.50227 181.9 7.56672 181.787C7.63117 181.674 7.66669 181.547 7.67014 181.417C7.67359 181.287 7.64486 181.158 7.58651 181.041C7.52816 180.925 7.44195 180.824 7.33548 180.749L8.24206 180.177C8.61792 179.939 9.07311 179.86 9.50749 179.957C9.94187 180.054 10.3198 180.318 10.5583 180.692Z" fill="#6C63FF"/>
</g>
<defs>
<clipPath id="clip0">
<rect width="142" height="343" fill="white"/>
</clipPath>
</defs>
</svg>
